<svg xmlns="http://www.w3.org/2000/svg" viewBox="0 0 64 64" fill="none">
  <defs>
    <linearGradient id="bg" x1="10" y1="8" x2="56" y2="58" gradientUnits="userSpaceOnUse">
      <stop stop-color="#182130"/>
      <stop offset="1" stop-color="#0B111C"/>
    </linearGradient>
    <linearGradient id="stroke" x1="14" y1="10" x2="52" y2="52" gradientUnits="userSpaceOnUse">
      <stop stop-color="#FFEBC7"/>
      <stop offset="0.55" stop-color="#F1C56E"/>
      <stop offset="1" stop-color="#D89257"/>
    </linearGradient>
    <radialGradient id="glow" cx="0" cy="0" r="1" gradientUnits="userSpaceOnUse" gradientTransform="translate(32 32) rotate(90) scale(26)">
      <stop stop-color="#FFDFA8" stop-opacity=".22"/>
      <stop offset="1" stop-color="#FFDFA8" stop-opacity="0"/>
    </radialGradient>
    <radialGradient id="orb" cx="0" cy="0" r="1" gradientUnits="userSpaceOnUse" gradientTransform="translate(0 0) scale(1)">
      <stop stop-color="#FFF8E8"/>
      <stop offset="0.62" stop-color="#F4CC74"/>
      <stop offset="1" stop-color="#D89257"/>
    </radialGradient>
  </defs>

  <rect x="4" y="4" width="56" height="56" rx="17" fill="url(#bg)"/>
  <rect x="4.75" y="4.75" width="54.5" height="54.5" rx="16.25" stroke="#F0C36A" stroke-opacity=".2" stroke-width="1.5"/>
  <circle cx="32" cy="32" r="23" fill="url(#glow)"/>

  <g stroke="url(#stroke)" stroke-width="2" stroke-linecap="round" stroke-linejoin="round" opacity=".92">
    <path d="M32 13.5L19 21L17 34.5L27 47.5H37L47 34.5L45 21L32 13.5Z"/>
    <path d="M19 21L32 27.5L45 21"/>
    <path d="M17 34.5L32 27.5L47 34.5"/>
    <path d="M27 47.5L32 27.5L37 47.5"/>
    <path d="M32 13.5L24 30.5L27 47.5"/>
    <path d="M32 13.5L40 30.5L37 47.5"/>
    <path d="M24 30.5H40"/>
  </g>

  <g fill="url(#orb)">
    <circle cx="32" cy="13.5" r="2.2"/>
    <circle cx="19" cy="21" r="1.9"/>
    <circle cx="45" cy="21" r="1.9"/>
    <circle cx="17" cy="34.5" r="1.7"/>
    <circle cx="47" cy="34.5" r="1.7"/>
    <circle cx="27" cy="47.5" r="1.7"/>
    <circle cx="37" cy="47.5" r="1.7"/>
    <circle cx="32" cy="27.5" r="1.8"/>
    <circle cx="24" cy="30.5" r="1.55"/>
    <circle cx="40" cy="30.5" r="1.55"/>
  </g>
</svg>
